<?xml version="1.0" encoding="UTF-8" standalone="no"?>
<!DOCTYPE svg PUBLIC "-//W3C//DTD SVG 1.1//EN"
 "http://www.w3.org/Graphics/SVG/1.1/DTD/svg11.dtd">
<!-- Generated by graphviz version 9.0.0 (20230911.1827)
 -->
<!-- Title: G Pages: 1 -->
<svg width="472pt" height="44pt"
 viewBox="0.00 0.00 471.68 44.00" xmlns="http://www.w3.org/2000/svg" xmlns:xlink="http://www.w3.org/1999/xlink">
<g id="graph0" class="graph" transform="scale(1 1) rotate(0) translate(4 40)">
<title>G</title>
<polygon fill="white" stroke="none" points="-4,4 -4,-40 467.68,-40 467.68,4 -4,4"/>
<!-- x -->
<g id="node1" class="node">
<title>x</title>
<ellipse fill="none" stroke="black" cx="27" cy="-18" rx="27" ry="18"/>
<text text-anchor="middle" x="27" y="-13.32" font-family="Times,serif" font-size="14.00">x</text>
</g>
<!-- x*ŵ₁, &#160;&#160;&#160;bias=True -->
<g id="node2" class="node">
<title>x*ŵ₁, &#160;&#160;&#160;bias=True</title>
<ellipse fill="none" stroke="black" cx="215.71" cy="-18" rx="101.71" ry="18"/>
<text text-anchor="middle" x="215.71" y="-13.32" font-family="Times,serif" font-size="14.00">x*ŵ₁, &#160;&#160;&#160;bias=True</text>
</g>
<!-- x&#45;&gt;x*ŵ₁, &#160;&#160;&#160;bias=True -->
<g id="edge1" class="edge">
<title>x&#45;&gt;x*ŵ₁, &#160;&#160;&#160;bias=True</title>
<path fill="none" stroke="black" d="M54.36,-18C67.45,-18 84.25,-18 102.04,-18"/>
<polygon fill="black" stroke="black" points="102.01,-21.5 112.01,-18 102.01,-14.5 102.01,-21.5"/>
<text text-anchor="middle" x="84" y="-21.95" font-family="Times,serif" font-size="14.00">*ŵ₁</text>
</g>
<!-- ŷ -->
<g id="node3" class="node">
<title>ŷ</title>
<ellipse fill="none" stroke="black" cx="436.68" cy="-18" rx="27" ry="18"/>
<text text-anchor="middle" x="436.68" y="-13.32" font-family="Times,serif" font-size="14.00">ŷ</text>
</g>
<!-- x*ŵ₁, &#160;&#160;&#160;bias=True&#45;&gt;ŷ -->
<g id="edge2" class="edge">
<title>x*ŵ₁, &#160;&#160;&#160;bias=True&#45;&gt;ŷ</title>
<path fill="none" stroke="black" d="M317.86,-18C346.55,-18 376,-18 398.28,-18"/>
<polygon fill="black" stroke="black" points="398.04,-21.5 408.04,-18 398.04,-14.5 398.04,-21.5"/>
<text text-anchor="middle" x="363.55" y="-21.95" font-family="Times,serif" font-size="14.00">sigmoid</text>
</g>
</g>
</svg>
