<?xml version="1.0" encoding="UTF-8" standalone="no"?>
<svg xmlns="http://www.w3.org/2000/svg" width="555pt" height="320pt" viewBox="0 0 555 320">
<defs><marker id="arrow" viewBox="0 0 10 10" refX="10" refY="5" markerWidth="6" markerHeight="6" orient="auto-start-reverse"><path d="M 0 0 L 10 5 L 0 10 z" fill="black"/></marker></defs>
<rect x="25.0" y="115.0" width="100.0" height="76.0" fill="lightgrey" stroke="lightgrey"/>
<text x="75.0" y="133.0" text-anchor="middle" font-family="Times,serif" font-size="14">Layer 0</text>
<rect x="165.0" y="90.0" width="100.0" height="126.0" fill="lightgrey" stroke="lightgrey"/>
<text x="215.0" y="108.0" text-anchor="middle" font-family="Times,serif" font-size="14">Layer 1: ReLU</text>
<rect x="305.0" y="15.0" width="100.0" height="276.0" fill="lightgrey" stroke="lightgrey"/>
<text x="355.0" y="33.0" text-anchor="middle" font-family="Times,serif" font-size="14">Layer 2: ReLU</text>
<rect x="445.0" y="115.0" width="100.0" height="76.0" fill="lightgrey" stroke="lightgrey"/>
<text x="495.0" y="133.0" text-anchor="middle" font-family="Times,serif" font-size="14">Layer 3: Sigmoid</text>
<line x1="109.5" y1="149.8" x2="180.5" y2="131.2" stroke="black" stroke-width="1" marker-end="url(#arrow)"/>
<line x1="109.5" y1="156.2" x2="180.5" y2="174.8" stroke="black" stroke-width="1" marker-end="url(#arrow)"/>
<line x1="245.9" y1="119.5" x2="324.1" y2="61.5" stroke="black" stroke-width="1" marker-end="url(#arrow)"/>
<line x1="249.5" y1="124.8" x2="320.5" y2="106.2" stroke="black" stroke-width="1" marker-end="url(#arrow)"/>
<line x1="249.5" y1="131.2" x2="320.5" y2="149.8" stroke="black" stroke-width="1" marker-end="url(#arrow)"/>
<line x1="245.9" y1="136.5" x2="324.1" y2="194.5" stroke="black" stroke-width="1" marker-end="url(#arrow)"/>
<line x1="241.1" y1="140.0" x2="328.9" y2="241.0" stroke="black" stroke-width="1" marker-end="url(#arrow)"/>
<line x1="241.1" y1="166.0" x2="328.9" y2="65.0" stroke="black" stroke-width="1" marker-end="url(#arrow)"/>
<line x1="245.9" y1="169.5" x2="324.1" y2="111.5" stroke="black" stroke-width="1" marker-end="url(#arrow)"/>
<line x1="249.5" y1="174.8" x2="320.5" y2="156.2" stroke="black" stroke-width="1" marker-end="url(#arrow)"/>
<line x1="249.5" y1="181.2" x2="320.5" y2="199.8" stroke="black" stroke-width="1" marker-end="url(#arrow)"/>
<line x1="245.9" y1="186.5" x2="324.1" y2="244.5" stroke="black" stroke-width="1" marker-end="url(#arrow)"/>
<line x1="383.5" y1="63.5" x2="466.5" y2="142.5" stroke="black" stroke-width="1" marker-end="url(#arrow)"/>
<line x1="388.0" y1="109.1" x2="462.0" y2="146.9" stroke="black" stroke-width="1" marker-end="url(#arrow)"/>
<line x1="390.0" y1="153.0" x2="460.0" y2="153.0" stroke="black" stroke-width="1" marker-end="url(#arrow)"/>
<line x1="388.0" y1="196.9" x2="462.0" y2="159.1" stroke="black" stroke-width="1" marker-end="url(#arrow)"/>
<line x1="383.5" y1="242.5" x2="466.5" y2="163.5" stroke="black" stroke-width="1" marker-end="url(#arrow)"/>
<ellipse cx="75.0" cy="153.0" rx="35" ry="18" fill="white" stroke="black"/>
<text x="75.0" y="157.0" text-anchor="middle" font-family="Times,serif" font-size="14">x</text>
<ellipse cx="215.0" cy="128.0" rx="35" ry="18" fill="white" stroke="black"/>
<text x="215.0" y="132.0" text-anchor="middle" font-family="Times,serif" font-size="14">node1</text>
<ellipse cx="215.0" cy="178.0" rx="35" ry="18" fill="white" stroke="black"/>
<text x="215.0" y="182.0" text-anchor="middle" font-family="Times,serif" font-size="14">node2</text>
<ellipse cx="355.0" cy="53.0" rx="35" ry="18" fill="white" stroke="black"/>
<text x="355.0" y="57.0" text-anchor="middle" font-family="Times,serif" font-size="14">node1</text>
<ellipse cx="355.0" cy="103.0" rx="35" ry="18" fill="white" stroke="black"/>
<text x="355.0" y="107.0" text-anchor="middle" font-family="Times,serif" font-size="14">node2</text>
<ellipse cx="355.0" cy="153.0" rx="35" ry="18" fill="white" stroke="black"/>
<text x="355.0" y="157.0" text-anchor="middle" font-family="Times,serif" font-size="14">node3</text>
<ellipse cx="355.0" cy="203.0" rx="35" ry="18" fill="white" stroke="black"/>
<text x="355.0" y="207.0" text-anchor="middle" font-family="Times,serif" font-size="14">node4</text>
<ellipse cx="355.0" cy="253.0" rx="35" ry="18" fill="white" stroke="black"/>
<text x="355.0" y="257.0" text-anchor="middle" font-family="Times,serif" font-size="14">node5</text>
<ellipse cx="495.0" cy="153.0" rx="35" ry="18" fill="white" stroke="black"/>
<text x="495.0" y="157.0" text-anchor="middle" font-family="Times,serif" font-size="14">yhat</text>
</svg>